<svg xmlns="http://www.w3.org/2000/svg" viewBox="0 0 165.83 299.55"><title>telefon_ikon</title><path d="M164.33,264.43v14.18c0,10.74-10.51,19.44-23.47,19.44H25c-13,0-23.47-8.7-23.47-19.44V264.43" fill="#fff" stroke="#000" stroke-miterlimit="10" stroke-width="3"/><path d="M1.5,264.43V25A23.47,23.47,0,0,1,25,1.5H140.86A23.47,23.47,0,0,1,164.33,25V264.43" fill="#3cb84d" stroke="#000" stroke-miterlimit="10" stroke-width="3"/><line x1="1.5" y1="263.02" x2="164.33" y2="263.02" fill="none" stroke="#000" stroke-miterlimit="10" stroke-width="3"/><circle cx="82.91" cy="280.18" r="10.65" fill="none" stroke="#000" stroke-miterlimit="10" stroke-width="3"/><path d="M1.5,35.12V20.94C1.5,10.2,12,1.5,25,1.5H140.86c13,0,23.47,8.7,23.47,19.44V35.12" fill="#fff" stroke="#000" stroke-miterlimit="10" stroke-width="3"/><circle cx="27.75" cy="18.83" r="6.43" fill="#4d4d4d"/><path d="M27.75,12.77a6.06,6.06,0,1,1-6.05,6.06,6.06,6.06,0,0,1,6.05-6.06m0-.75a6.81,6.81,0,1,0,6.8,6.81A6.8,6.8,0,0,0,27.75,12Z"/><path d="M27.75,14.75a4.08,4.08,0,1,0,4.08,4.08,4.08,4.08,0,0,0-4.08-4.08Z"/><rect x="64.88" y="15.25" width="33.31" height="7.03" rx="3.52"/><line x1="1.5" y1="35.12" x2="164.33" y2="35.12" fill="none" stroke="#000" stroke-miterlimit="10" stroke-width="3"/></svg>