<svg xmlns="http://www.w3.org/2000/svg" viewBox="0 0 142.93 282.69"><title>telefon_ikon_1</title><path d="M141.43,249.48v13.38c0,10.12-9,18.33-20.16,18.33H21.67C10.53,281.19,1.5,273,1.5,262.86V249.48" fill="#fff" stroke="#000" stroke-miterlimit="10" stroke-width="3"/><path d="M1.5,249.48V23.63c0-12.22,9-22.13,20.17-22.13h99.6c11.13,0,20.16,9.91,20.16,22.13V249.48" fill="#3cb84d" stroke="#000" stroke-miterlimit="10" stroke-width="3"/><line x1="1.5" y1="248.15" x2="141.43" y2="248.15" fill="none" stroke="#000" stroke-miterlimit="10" stroke-width="3"/><ellipse cx="71.47" cy="264.34" rx="9.16" ry="10.05" fill="none" stroke="#000" stroke-miterlimit="10" stroke-width="3"/><path d="M1.5,33.21V19.83c0-10.12,9-18.33,20.17-18.33h99.6c11.13,0,20.16,8.21,20.16,18.33V33.21" fill="#fff" stroke="#000" stroke-miterlimit="10" stroke-width="3"/><path d="M24.06,23.88a5.78,5.78,0,0,1-5.47-6,5.78,5.78,0,0,1,5.47-6,5.78,5.78,0,0,1,5.47,6A5.78,5.78,0,0,1,24.06,23.88Z" fill="#4d4d4d"/><path d="M24.06,12.18a5.41,5.41,0,0,1,5.1,5.66,5.41,5.41,0,0,1-5.1,5.67A5.41,5.41,0,0,1,19,17.84a5.41,5.41,0,0,1,5.1-5.66m0-.75a6.15,6.15,0,0,0-5.85,6.41,6.15,6.15,0,0,0,5.85,6.42,6.15,6.15,0,0,0,5.85-6.42,6.15,6.15,0,0,0-5.85-6.41Z"/><path d="M24.06,14a3.69,3.69,0,0,0-3.51,3.85,3.69,3.69,0,0,0,3.51,3.85,3.69,3.69,0,0,0,3.51-3.85A3.69,3.69,0,0,0,24.06,14Z"/><rect x="55.96" y="14.47" width="28.63" height="6.63" rx="3.32"/><line x1="1.5" y1="33.21" x2="141.43" y2="33.21" fill="none" stroke="#000" stroke-miterlimit="10" stroke-width="3"/></svg>