<svg xmlns="http://www.w3.org/2000/svg" viewBox="0 0 457.5 118.84"><title>yousee_logo_hvid</title><path d="M107.77,97c-25.4,0-36.91-16.85-36.91-35.59S82.31,26,107.77,26s36.91,16.72,36.91,35.46S133.24,97,107.77,97m0-52.31c-9.81,0-11.06,9.49-11.06,16.72S98,78.28,107.77,78.28s11.07-9.62,11.07-16.85-1.26-16.72-11.07-16.72m110.1,50.61H193V86.71h-.25C187.88,93.5,181,97,170.71,97c-12.13,0-23.2-7.42-23.2-23V27.67h25.84V63.13c0,7.8.88,13.33,8.49,13.33,4.47,0,10.32-2.2,10.32-13V27.67H218V95.32ZM249.31,64a16.3,16.3,0,0,0,1.07,6.1c2.07,5.6,8.36,6.79,13.71,6.79,4.71,0,11.88-1.57,11.88-8.49,0-4.84-4-6.1-20.06-10.69-14.71-4.15-31.56-8.24-31.56-27C224.35,9.24,242.71,0,261.89,0c20.24,0,38.1,7.67,38.86,30.37H273.64A7.16,7.16,0,0,0,270.25,23a14.79,14.79,0,0,0-8.49-2.33c-3.9,0-10.31,1.07-10.31,6.29.5,6.67,13.83,8.11,27,11.76s26.22,9.81,26.22,26.85c0,24.27-22.32,32.07-43,32.07-10.57,0-40.69-3.78-40.94-33.52h28.61Zm82.31,3.27c.63,7.67,5.09,13.14,13.2,13.14,4.15,0,8.74-1.57,10.82-4.84h24.14C374.56,90.17,360.35,97,345,97c-21.63,0-38-12.77-38-35.34,0-19.68,14.34-35.71,35.71-35.71,26.85,0,38.49,15,38.49,41.37Zm24.77-13.39a11.07,11.07,0,0,0-11.32-11.32c-7.67,0-12.13,4-13.33,11.32ZM408,67.28c.62,7.67,5.09,13.14,13.14,13.14,4.15,0,8.74-1.57,10.81-4.84h24.15C450.9,90.17,436.69,97,421.28,97c-21.63,0-38-12.77-38-35.34,0-19.68,14.34-35.71,35.72-35.71,26.85,0,38.48,15,38.48,41.37Zm24.77-13.39a11.08,11.08,0,0,0-11.32-11.32c-7.67,0-12.13,4-13.33,11.32Zm-411,65c-5,0-12.83-2-12.83-2V99.22s3.71.5,5.66.5c3.77,0,5.66-1.25,7.11-3a18.52,18.52,0,0,0,2.76-4.78L0,27.67H27.41L37.6,67l12.2-39.3H76.33s-23.64,64-26.47,71.61c-4.65,12.27-15.4,19.56-28,19.56" fill="#fff"/></svg>